<svg xmlns="http://www.w3.org/2000/svg" viewBox="0 0 952 442"><title>IconBlack</title><g id="Layer_2" data-name="Layer 2"><g id="VerticalBlack"><path id="Logo" d="M847.13,44.68h0V32a32.09,32.09,0,0,0-32-32H676.83a32.05,32.05,0,0,0-27.07,15H302.24A32.05,32.05,0,0,0,275.17,0H136.83a32.09,32.09,0,0,0-32,32V44.69h0A213.38,213.38,0,0,0,0,228.5C0,346.41,95.59,442,213.5,442A213.34,213.34,0,0,0,394.35,342h163.3A213.34,213.34,0,0,0,738.5,442C856.41,442,952,346.41,952,228.5A213.38,213.38,0,0,0,847.13,44.68ZM299.56,262.35a6.29,6.29,0,0,1-6.29,6.29H238.19v55.08a6.29,6.29,0,0,1-6.29,6.29h-62a6.29,6.29,0,0,1-6.29-6.29V268.63H108.51a6.29,6.29,0,0,1-6.29-6.29v-62a6.29,6.29,0,0,1,6.29-6.29h55.08V139a6.29,6.29,0,0,1,6.29-6.29h62a6.29,6.29,0,0,1,6.29,6.29V194h55.08a6.29,6.29,0,0,1,6.29,6.29ZM416.4,132a9.4,9.4,0,1,1-9.4,9.4A9.4,9.4,0,0,1,416.4,132ZM450.68,215H437.44C419.71,215,407,203.2,407,183.69V160.51l15.75.08h25.78v15H422.75V184c0,10.92,6.45,15.93,16.83,15.93h11.1ZM545,183.58c0,19.52-12.71,31.33-30.43,31.33H501.32v-15h11.1c10.39,0,16.83-5,16.83-15.93v-8.41H478.5V215l-15.75-.1V152.44c0-19.52,12.71-31.33,30.44-31.33h13.25v15h-11.1c-10.38,0-16.83,5-16.83,15.94v8.41h50.75l15.75-.08Zm-9.4-32.83a9.4,9.4,0,1,1,9.4-9.4A9.4,9.4,0,0,1,535.6,150.76ZM675.91,337.92a56.58,56.58,0,1,1,56.58-56.58A56.58,56.58,0,0,1,675.91,337.92ZM814.42,232.24A56.58,56.58,0,1,1,871,175.66,56.58,56.58,0,0,1,814.42,232.24Z"/></g></g></svg>